# xmcd
#
# Track frame offsets:
#	183
#	16728
#	26838
#	37133
#	46710
#	60488
#	72005
#	85483
#	98915
#	109073
#	121608
#	131018
#	140680
#	151443
#	161180
#	175793
#	185073
#	196190
#
# Disc length: 2656 seconds
#
# Revision: 1
# Processed by: cddbd v1.5.1PL2 Copyright (c) Steve Scherf et al.
# Submitted via: audiograbber 1.83.01
#
DISCID=f40a5e12
DTITLE=Compilation - Il était une fois... le western [CD 2)
DYEAR=1992
DGENRE=Western
TTITLE0=Il était une fois dans l'ouest
TTITLE1=Deep in the heart of texas
TTITLE2=My darling Clementine
TTITLE3=Le virginien
TTITLE4=3 heures 10 pour Yuma
TTITLE5=Mon nom est personne
TTITLE6=Raindrops keep falling on my head
TTITLE7=La kermesse de l'ouest
TTITLE8=Vera Cruz
TTITLE9=7 secondes en enfer
TTITLE10=Along the navajo trail
TTITLE11=Les 7 mercenaires
TTITLE12=Si toi aussi tu m'abandonnes
TTITLE13=Oh suzannah
TTITLE14=Pour quelques dollars de plus
TTITLE15=Alamo
TTITLE16=La rivière sans retour
TTITLE17=Sonnerie de l'armée du sud
EXTD=
EXTT0=
EXTT1=
EXTT2=
EXTT3=
EXTT4=
EXTT5=
EXTT6=
EXTT7=
EXTT8=
EXTT9=
EXTT10=
EXTT11=
EXTT12=
EXTT13=
EXTT14=
EXTT15=
EXTT16=
EXTT17=
PLAYORDER=
